PathFileType	3	(X/Y/Z)	RCH0000002 BBF 07.c3d
DataRate	CameraRate	NumFrames	NumMarkers	Units	OrigDataRate	OrigDataStartFrame	OrigNumFrames
100.0	100.0	13	23	mm	100.0	41	452
Frame#	Time	T2			T10			MAN			LASI			RASI			RPSI			LPAT			LKNE			LANK			LMED			LHEE			LTOE			RPAT			RKNE			RANK			RMED			RHEE			RTOE			LPSI			RTHI			LTHI			RTIB			LTIB			
		X1	Y1	Z1	X2	Y2	Z2	X3	Y3	Z3	X4	Y4	Z4	X5	Y5	Z5	X6	Y6	Z6	X7	Y7	Z7	X8	Y8	Z8	X9	Y9	Z9	X10	Y10	Z10	X11	Y11	Z11	X12	Y12	Z12	X13	Y13	Z13	X14	Y14	Z14	X15	Y15	Z15	X16	Y16	Z16	X17	Y17	Z17	X18	Y18	Z18	X19	Y19	Z19	X20	Y20	Z20	X21	Y21	Z21	X22	Y22	Z22	X23	Y23	Z23	

41	0.400	-2487.84944	-20.94100	981.00495	-2486.88557	-18.28300	789.71269	-2360.15003	6.72532	940.77039	-2430.86293	75.89738	631.76450	-2376.17738	-91.41772	650.26298	-2498.30376	-67.81444	702.51123	-2440.77861	21.49900	346.39899	-2506.23360	67.19978	321.89120	-2703.92691	47.96426	139.68223	-2685.46644	-19.51387	150.09087	-2708.33505	9.35705	188.45711	-2671.53618	12.97841	100.30707	-2341.91076	-8.87676	384.81774	-2368.56861	-70.45729	342.52089	-2432.69806	-87.12054	79.93627	-2468.80181	-28.72432	95.68084	-2484.08235	-80.18167	115.24976	-2406.37383	-36.39139	74.58138	-2517.97176	-0.27462	693.71691	-2350.40799	-146.64188	448.36266	-2502.05892	141.28841	444.49569	-2368.62922	-137.51044	228.10788	-2594.42462	122.09347	245.69308	
42	0.410	-2478.43836	-19.12601	985.67529	-2476.40797	-18.91876	794.34568	-2350.76162	8.06614	946.29245	-2418.27152	73.98887	636.68825	-2366.15316	-93.86946	654.96600	-2487.25599	-68.97270	707.49680	-2421.64732	23.52418	352.72163	-2487.15839	69.69028	327.39671	-2682.26493	52.53087	142.35224	-2661.97287	-14.88631	150.53920	-2686.93202	12.05731	189.26664	-2647.89861	19.85941	103.28662	-2342.29360	-13.00385	386.67994	-2369.82602	-74.48836	345.09844	-2432.72914	-86.71917	81.29949	-2467.79317	-27.95856	97.36878	-2484.09498	-79.13527	116.62698	-2405.85256	-36.08302	75.36242	-2506.23326	-1.22972	698.83344	-2347.49072	-150.40364	450.02359	-2485.84664	142.10829	450.87814	-2371.83339	-140.46785	229.62200	-2575.45008	125.00190	251.83943	
43	0.420	-2469.03034	-17.36703	990.22329	-2466.01206	-19.53112	798.84968	-2341.38127	9.35399	951.62611	-2405.73908	72.10698	641.48436	-2356.26288	-96.30629	659.55382	-2476.33977	-70.05194	712.32667	-2402.49958	25.55365	359.00265	-2468.00068	72.17839	332.82733	-2660.53015	57.15908	144.95700	-2638.52472	-10.20994	151.01922	-2665.50861	14.89350	190.07129	-2624.23901	26.69981	106.23216	-2342.56074	-17.12253	388.49007	-2370.99363	-78.49179	347.63384	-2432.68620	-86.35073	82.66355	-2466.70927	-27.23310	99.06694	-2484.03179	-78.12794	118.02217	-2405.26293	-35.81046	76.13709	-2494.59449	-2.10694	703.78612	-2344.60154	-154.12566	451.66340	-2469.61777	142.96036	457.13747	-2374.90580	-143.40530	231.10548	-2556.31552	127.94949	257.84017	
44	0.430	-2459.60444	-15.70910	994.52483	-2455.74784	-20.09119	803.09389	-2331.99239	10.54436	956.58714	-2393.28894	70.27196	646.02086	-2346.60456	-98.71529	663.91131	-2465.64942	-70.97440	716.84684	-2383.29339	27.55938	365.19809	-2448.64530	74.63941	338.11099	-2638.56360	61.90008	147.41826	-2615.07730	-5.44623	151.53596	-2643.96135	17.98556	190.83873	-2600.44631	33.45332	109.09748	-2342.59318	-21.21133	390.19208	-2371.97540	-82.42982	350.08092	-2432.51204	-86.03906	84.02482	-2465.49200	-26.57748	100.77993	-2483.83074	-77.18803	119.44908	-2404.55200	-35.60115	76.89689	-2483.11818	-2.82978	708.40958	-2341.75008	-157.76456	453.25319	-2453.30946	143.85605	463.15430	-2377.72413	-146.29357	232.52709	-2536.80939	130.95795	263.55815	
45	0.440	-2450.13569	-14.18458	998.47603	-2445.64704	-20.57197	806.96832	-2322.57362	11.60392	961.02333	-2380.92837	68.49568	650.18359	-2337.24964	-101.08877	667.94170	-2455.25338	-71.67425	720.92775	-2363.97810	29.50271	371.26922	-2428.97943	77.04516	343.18809	-2616.20469	66.79871	149.67198	-2591.56410	-0.56157	152.08785	-2622.17400	21.43155	191.53833	-2576.39950	40.08541	111.84090	-2342.28955	-25.24405	391.73654	-2372.68893	-86.26171	352.39638	-2432.16650	-85.80328	85.37323	-2464.10507	-26.01558	102.50534	-2483.44643	-76.34116	120.91245	-2403.68419	-35.47603	77.63156	-2471.84548	-3.33314	712.56180	-2338.94296	-161.28265	454.76433	-2436.84700	144.79597	468.82892	-2380.18736	-149.10257	233.85952	-2516.73217	134.04490	268.88777	
46	0.450	-2440.60168	-12.81126	1001.99635	-2435.72601	-20.94919	810.38740	-2313.10518	12.51262	964.82085	-2368.65437	66.78168	653.87964	-2328.24229	-103.42290	671.56934	-2445.19425	-72.10145	724.46942	-2344.51096	31.33180	377.18067	-2408.91218	79.36141	348.01217	-2593.30945	71.88566	151.66884	-2567.90891	4.46591	152.66285	-2600.03298	25.29680	192.13867	-2551.98391	46.57006	114.42447	-2341.57306	-29.18592	393.08211	-2373.06968	-89.94187	354.54044	-2431.63198	-85.65451	86.69183	-2462.53968	-25.56203	104.23211	-2482.85553	-75.60593	122.40648	-2402.64613	-35.44674	78.32914	-2460.79861	-3.56728	716.12970	-2336.18329	-164.64635	456.16799	-2420.15699	145.76705	474.08412	-2382.22161	-151.79921	235.07974	-2495.92013	137.21717	273.75857	
47	0.460	-2430.98659	-11.59255	1005.02825	-2425.98852	-21.20161	813.28994	-2303.57266	13.26378	967.90475	-2356.45840	65.12667	657.03827	-2319.60046	-105.71569	674.73957	-2435.49019	-72.22338	727.40246	-2324.87021	32.98109	382.89937	-2388.38749	81.54590	352.54971	-2569.75914	77.17138	153.37095	-2544.03212	9.64115	153.23445	-2577.43624	29.60781	192.60285	-2527.09884	52.88538	116.81234	-2340.39492	-32.99144	394.19585	-2373.07224	-93.41981	356.47765	-2430.91601	-85.59267	87.95869	-2460.81508	-25.21845	105.94118	-2482.05928	-74.98814	123.91623	-2401.44804	-35.51326	78.97691	-2449.98360	-3.49973	719.03114	-2333.46877	-167.82396	457.43481	-2403.17748	146.74166	478.86596	-2383.78304	-154.34581	236.16892	-2474.25964	140.46465	278.13341	
48	0.470	-2421.28294	-10.51901	1007.53494	-2416.42825	-21.31132	815.63718	-2293.96870	13.86296	970.23637	-2344.32976	63.52301	659.61043	-2311.31766	-107.96459	677.41703	-2426.13653	-72.02500	729.68688	-2305.06477	34.37279	388.39402	-2367.39205	83.54708	356.77924	-2545.46266	82.64159	154.74652	-2519.85368	14.94814	153.75854	-2554.29788	34.34980	192.88332	-2501.65988	59.00803	118.96894	-2338.73473	-36.60471	395.05312	-2372.66989	-96.64219	358.17800	-2430.05090	-85.60400	89.15027	-2458.97502	-24.97052	107.60780	-2481.08306	-74.47562	125.42090	-2400.12208	-35.66279	79.56289	-2439.39265	-3.11593	721.21499	-2330.78895	-170.78388	458.53522	-2385.86572	147.67847	483.14288	-2384.85850	-156.69992	237.11236	-2451.69446	143.75553	282.00278	
49	0.480	-2411.49188	-9.57094	1009.49731	-2407.03056	-21.26396	817.40993	-2284.29319	14.32599	971.80884	-2332.25783	61.96160	661.56778	-2303.36519	-110.16419	679.58355	-2417.10767	-71.50816	731.30974	-2285.14022	35.42039	393.63451	-2345.95899	85.30396	360.68954	-2520.35558	88.25414	155.76408	-2495.29512	20.34698	154.17189	-2530.55065	39.46724	192.91787	-2475.59883	64.90726	120.85739	-2336.59846	-39.96263	395.63733	-2371.85268	-99.55673	359.61839	-2429.09014	-85.66066	90.24557	-2457.08079	-24.78734	109.20497	-2479.97307	-74.03586	126.89811	-2398.71815	-35.87016	80.07743	-2429.00605	-2.41877	722.66001	-2328.12256	-173.49420	459.44053	-2368.20388	148.52460	486.90355	-2385.46434	-158.81619	237.89972	-2428.22754	147.03378	285.37665	
50	0.490	-2401.62220	-8.72124	1010.91075	-2397.77388	-21.04895	818.60556	-2274.55219	14.67656	972.64209	-2320.23310	60.43485	662.90140	-2295.69448	-112.30443	681.23610	-2408.35895	-70.68999	732.28215	-2265.18052	36.03383	398.59076	-2324.16777	86.74744	364.27660	-2494.39837	93.93741	156.38766	-2470.28305	25.77182	154.39337	-2506.14798	44.86689	192.62839	-2448.86430	70.53859	122.43837	-2334.01401	-43.00090	395.93987	-2370.62453	-102.11762	360.78422	-2428.10174	-85.72310	91.22976	-2455.20201	-24.62403	110.70730	-2478.79008	-73.61833	128.32809	-2397.29750	-36.10037	80.51463	-2418.79357	-1.42730	723.37291	-2325.43566	-175.92401	460.12480	-2350.20262	149.21875	490.15306	-2385.64266	-160.65043	238.52558	-2403.91806	150.21951	288.27465	
51	0.500	-2391.68851	-7.93855	1011.78222	-2388.63048	-20.65987	819.23505	-2264.75609	14.94371	972.77772	-2308.24715	58.93908	663.62014	-2288.23976	-114.36978	682.38485	-2399.82903	-69.60061	732.63577	-2245.30501	36.12573	403.23076	-2302.14060	87.80297	367.53931	-2467.57598	99.59051	156.57409	-2444.75525	31.12994	154.32817	-2481.06657	50.42292	191.92317	-2421.42457	75.83823	123.66967	-2331.02459	-45.66178	395.96013	-2368.99915	-104.29135	361.67087	-2427.15873	-85.74559	92.09681	-2453.40637	-24.42799	112.09462	-2477.60052	-73.16190	129.69721	-2395.92483	-36.31331	80.87311	-2408.71568	-0.17448	723.38552	-2322.68113	-178.04643	460.56736	-2331.90265	149.69514	492.90766	-2385.45470	-162.16542	238.99028	-2378.87477	153.21212	290.71594	
52	0.510	-2381.70910	-7.19013	1012.12757	-2379.56702	-20.09469	819.32029	-2254.91745	15.15935	972.27414	-2296.29179	57.47596	663.74845	-2280.92122	-116.33972	683.05147	-2391.44276	-68.28022	732.41884	-2225.66083	35.61792	407.51816	-2280.03533	88.39481	370.47405	-2439.90008	105.08505	156.27291	-2418.67016	36.30233	153.87505	-2455.31063	55.98316	190.70307	-2393.27403	80.71888	124.50669	-2327.68028	-47.90242	395.70533	-2366.99492	-106.06188	362.28438	-2426.32816	-85.68409	92.85035	-2451.74975	-24.14828	113.35492	-2476.46599	-72.60627	131.00007	-2394.65944	-36.47001	81.15606	-2398.72482	1.29600	722.75084	-2319.79969	-179.84267	460.75527	-2313.37376	149.88776	495.18809	-2384.97091	-163.33743	239.30040	-2353.24653	155.89608	292.70986	
53	0.520	-2371.70342	-6.44434	1011.96940	-2370.54499	-19.35610	818.89162	-2245.04869	15.35607	971.20190	-2284.35769	56.05278	663.32380	-2273.64878	-118.19041	683.26728	-2383.11480	-66.77574	731.69176	-2206.41124	34.44776	411.40984	-2258.03533	88.45139	373.06903	-2411.41485	110.26870	155.42927	-2392.01898	41.14582	152.93582	-2428.91770	61.37610	188.87095	-2364.44274	85.06825	124.90394	-2324.02850	-49.70204	395.18988	-2364.62889	-107.43415	362.64103	-2425.65982	-85.50520	93.50286	-2450.26779	-23.74616	114.48615	-2475.43236	-71.90535	132.24011	-2393.54672	-36.53956	81.37033	-2388.76689	2.93349	721.53796	-2316.72229	-181.30616	460.68531	-2294.71131	149.73505	497.01222	-2384.25854	-164.16206	239.46877	-2327.21171	158.14839	294.24875	
